<?xml version="1.0" encoding="UTF-8" standalone="no"?>
<svg width="22px" height="22px" viewBox="0 0 22 22" version="1.1" xmlns="http://www.w3.org/2000/svg" xmlns:xlink="http://www.w3.org/1999/xlink">
    <!-- Generator: Sketch 49.2 (51160) - http://www.bohemiancoding.com/sketch -->
    <title>carousel-arrow-small-left</title>
    <desc>Created with Sketch.</desc>
    <defs></defs>
    <g id="Page-1" stroke="none" stroke-width="1" fill="none" fill-rule="evenodd">
        <g id="carousel-arrow-small-left" transform="translate(1.000000, 1.000000)">
            <g id="desktop/navigation/arrow_sm" transform="translate(10.000000, 10.000000) rotate(-180.000000) translate(-10.000000, -10.000000) translate(0.000000, -0.000000)">
                <g id="NavElements/Advance_Arrow_sm">
                    <circle id="Oval" stroke="#202020" cx="10" cy="10" r="10"></circle>
                    <path d="M11,13 L12,13 L11,14 L11,13 Z M11,13 L11,7 L12,6 L12,14 L4,14 L5,13 L11,13 Z M11,13 L12,13 L11,14 L11,13 Z M11,13 L11,7 L12,6 L12,14 L4,14 L5,13 L11,13 Z" id="Rectangle-6" fill="#202020" fill-rule="nonzero" transform="translate(8.000000, 10.000000) rotate(-45.000000) translate(-8.000000, -10.000000) "></path>
                </g>
            </g>
        </g>
    </g>
</svg>