<?xml version="1.0" encoding="UTF-8"?>
<svg width="18px" height="18px" viewBox="0 0 18 18" version="1.1" xmlns="http://www.w3.org/2000/svg" xmlns:xlink="http://www.w3.org/1999/xlink">
    <!-- Generator: Sketch 49.1 (51147) - http://www.bohemiancoding.com/sketch -->
    <title>Shape</title>
    <desc>Created with Sketch.</desc>
    <defs></defs>
    <g id="Knowledge_Center" stroke="none" stroke-width="1" fill="none" fill-rule="evenodd">
        <g id="KC_1" transform="translate(-920.000000, -1059.000000)" fill="#202020" fill-rule="nonzero" stroke="#202020" stroke-width="0.5">
            <g id="search" transform="translate(921.000000, 1055.000000)">
                <g id="Group-4">
                    <path d="M6.31643982,5 C2.83296537,5 0,7.8329612 0,11.3164681 C0,14.7999286 2.83296537,17.6329277 6.31643982,17.6329277 C7.90639299,17.6329277 9.3567739,17.0398114 10.4681936,16.06697 L15.284479,20.8766868 C15.448938,21.0410834 15.7121862,21.0411255 15.8766241,20.8766868 C16.0411042,20.712227 16.0411463,20.4489145 15.8766241,20.2845179 L11.0669289,15.4748011 C12.0416819,14.3629343 12.6328796,12.9081675 12.6328796,11.3164681 C12.6328796,7.83295909 9.79989321,5 6.31643982,5 Z M6.31643982,5.84219574 C9.34473056,5.84219574 11.7906877,8.28811957 11.7906877,11.3164681 C11.7906877,14.3447639 9.34473056,16.790732 6.31643982,16.790732 C3.28812802,16.790732 0.842191976,14.3447639 0.842191976,11.3164681 C0.842191976,8.28811747 3.28812802,5.84219574 6.31643982,5.84219574 Z" id="Shape"></path>
                </g>
            </g>
        </g>
    </g>
</svg>