<?xml version="1.0" encoding="UTF-8"?><svg width="154px" height="75px" viewBox="0 0 154 75" version="1.1" xmlns="http://www.w3.org/2000/svg" xmlns:xlink="http://www.w3.org/1999/xlink"><title>RealtyMogul.com</title><desc>Created with Sketch.</desc><defs><polygon id="path-1" points="0 0.2031 7.1587 0.2031 7.1587 10.8801 0 10.8801"></polygon><polygon id="path-3" points="0.1715 0.8582 9.1095 0.8582 9.1095 12 0.1715 12"></polygon><polygon id="path-5" points="0 75 150 75 150 52.7416992 150 0 0 0"></polygon></defs><g id="Symbols" stroke="none" stroke-width="1" fill="none" fill-rule="evenodd"><g id="logo/stacked_white_75" transform="translate(-13.000000, -10.000000)"><g id="logo/stacked_white" transform="translate(13.000000, 10.000000)"><g id="Group-3" transform="translate(0.000000, 64.000000)"><mask id="mask-2" fill="white"><use xlink:href="#path-1"></use></mask><g id="Clip-2"></g><path d="M1.0157,5.6311 L2.5997,5.6311 C3.0787,5.6311 3.4767,5.5521 3.7957,5.3921 C4.1147,5.2331 4.3657,5.0351 4.5507,4.8011 C4.7347,4.5671 4.8647,4.3181 4.9387,4.0531 C5.0137,3.7901 5.0517,3.5481 5.0517,3.3281 C5.0517,3.0581 4.9987,2.7951 4.8947,2.5351 C4.7897,2.2761 4.6387,2.0441 4.4377,1.8401 C4.2397,1.6361 3.9847,1.4721 3.6757,1.3461 C3.3677,1.2221 3.0127,1.1591 2.6147,1.1591 L1.0157,1.1591 L1.0157,5.6311 Z M-0.0003,10.8801 L-0.0003,0.2031 L2.5847,0.2031 C3.0337,0.2031 3.4667,0.2651 3.8857,0.3901 C4.3037,0.5151 4.6747,0.7071 4.9987,0.9651 C5.3227,1.2251 5.5817,1.5481 5.7767,1.9371 C5.9707,2.3261 6.0667,2.7901 6.0667,3.3281 C6.0667,3.9261 5.9337,4.4941 5.6647,5.0331 C5.3957,5.5711 4.9517,5.9851 4.3337,6.2741 C4.4237,6.4231 4.5427,6.6231 4.6927,6.8721 C4.8417,7.1221 5.0067,7.3931 5.1857,7.6871 C5.3647,7.9821 5.5517,8.2881 5.7467,8.6071 C5.9407,8.9261 6.1267,9.2301 6.3067,9.5191 C6.4867,9.8081 6.6497,10.0721 6.8007,10.3121 C6.9497,10.5511 7.0697,10.7401 7.1587,10.8801 L5.9187,10.8801 C5.8377,10.7601 5.7337,10.5961 5.6037,10.3861 C5.4747,10.1771 5.3297,9.9431 5.1707,9.6841 C5.0117,9.4241 4.8417,9.1511 4.6627,8.8611 C4.4837,8.5721 4.3087,8.2881 4.1397,8.0091 C3.9707,7.7301 3.8077,7.4651 3.6537,7.2161 C3.4987,6.9671 3.3677,6.7531 3.2577,6.5731 C3.1577,6.5931 3.0537,6.6031 2.9437,6.6031 L2.6147,6.6031 L1.0157,6.6031 L1.0157,10.8801 L-0.0003,10.8801 Z" id="Fill-1" fill="#FFFFFF" mask="url(#mask-2)"></path></g><path d="M151.84,66.4 C150.86,66.4 150.1,65.61 150.1,64.66 L150.1,64.65 C150.1,63.7 150.87,62.9 151.84,62.9 C152.82,62.9 153.58,63.69 153.58,64.64 L153.58,64.65 C153.58,65.6 152.81,66.4 151.84,66.4 Z M151.84,66.21 C152.71,66.21 153.38,65.5 153.38,64.65 L153.38,64.64 C153.38,63.79 152.72,63.09 151.84,63.09 C150.97,63.09 150.3,63.8 150.3,64.65 L150.3,64.66 C150.3,65.51 150.96,66.21 151.84,66.21 Z M151.08,65.54 L151.08,63.7 L151.96,63.7 C152.41,63.7 152.73,63.89 152.73,64.32 C152.73,64.61 152.58,64.81 152.35,64.9 L152.79,65.54 L152.19,65.54 L151.82,64.99 L151.6,64.99 L151.6,65.54 L151.08,65.54 Z M151.6,64.58 L151.93,64.58 C152.11,64.58 152.21,64.49 152.21,64.36 C152.21,64.22 152.11,64.14 151.93,64.14 L151.6,64.14 L151.6,64.58 Z" id="®" fill="#FFFFFF"></path><polygon id="Fill-4" fill="#FFFFFF" points="13.212 74.8802 13.212 64.2032 19.938 64.2032 19.938 65.1302 14.228 65.1302 14.228 69.0332 19.34 69.0332 19.34 69.9902 14.228 69.9902 14.228 73.9232 20.147 73.9232 20.147 74.8802"></polygon><path d="M29.9815,66.326 C29.7825,66.795 29.5455,67.368 29.2715,68.046 C28.9975,68.724 28.7155,69.437 28.4275,70.184 L31.8355,70.184 C31.5365,69.437 31.2525,68.724 30.9825,68.046 C30.7135,67.368 30.4795,66.795 30.2805,66.326 C30.2595,66.287 30.2355,66.219 30.2055,66.125 C30.1765,66.03 30.1505,65.943 30.1305,65.863 C30.1115,65.943 30.0865,66.03 30.0565,66.125 C30.0265,66.219 30.0015,66.287 29.9815,66.326 Z M33.7175,74.88 C33.5185,74.422 33.2855,73.859 33.0165,73.19 C32.7465,72.523 32.4675,71.814 32.1785,71.067 L28.0835,71.067 C27.7945,71.814 27.5155,72.523 27.2465,73.19 C26.9775,73.859 26.7435,74.422 26.5435,74.88 L25.5275,74.88 C25.6765,74.522 25.8765,74.045 26.1255,73.452 C26.3745,72.859 26.6435,72.208 26.9335,71.5 C27.2215,70.793 27.5205,70.057 27.8295,69.295 C28.1385,68.532 28.4375,67.797 28.7265,67.089 C29.0155,66.381 29.2815,65.733 29.5255,65.145 C29.7705,64.557 29.9715,64.078 30.1305,63.709 C30.2805,64.078 30.4795,64.557 30.7295,65.145 C30.9785,65.733 31.2475,66.381 31.5365,67.089 C31.8255,67.797 32.1265,68.532 32.4405,69.295 C32.7545,70.057 33.0555,70.793 33.3445,71.5 C33.6335,72.208 33.8995,72.859 34.1445,73.452 C34.3885,74.045 34.5895,74.522 34.7495,74.88 L33.7175,74.88 Z" id="Fill-6" fill="#FFFFFF"></path><polygon id="Fill-8" fill="#FFFFFF" points="40.3697 74.8802 40.3697 64.2032 41.3857 64.2032 41.3857 73.9082 47.0657 73.9082 47.0657 74.8802"></polygon><polygon id="Fill-10" fill="#FFFFFF" points="57.7672 64.2029 57.7672 65.1749 54.9282 65.1749 54.9282 74.8799 53.8962 74.8799 53.8962 65.1749 51.0862 65.1749 51.0862 64.2029"></polygon><path d="M68.1993,71.1565 L68.1993,74.8795 L67.1683,74.8795 L67.1683,71.1565 C67.0383,70.9375 66.8673,70.6455 66.6523,70.2815 C66.4383,69.9175 66.2073,69.5135 65.9573,69.0705 C65.7083,68.6275 65.4463,68.1635 65.1733,67.6795 C64.8993,67.1965 64.6373,66.7325 64.3873,66.2885 C64.1393,65.8455 63.9093,65.4415 63.7013,65.0775 C63.4913,64.7135 63.3223,64.4225 63.1923,64.2025 L64.3433,64.2025 C64.5223,64.5025 64.7413,64.8815 65.0013,65.3395 C65.2603,65.7985 65.5363,66.2835 65.8303,66.7975 C66.1243,67.3105 66.4183,67.8315 66.7123,68.3595 C67.0063,68.8885 67.2733,69.3715 67.5123,69.8105 L67.6913,70.2595 L67.8703,69.8105 C68.1193,69.3715 68.3883,68.8885 68.6783,68.3595 C68.9663,67.8315 69.2533,67.3105 69.5373,66.7975 C69.8213,66.2835 70.0903,65.7985 70.3443,65.3395 C70.5983,64.8815 70.8153,64.5025 70.9943,64.2025 L72.1603,64.2025 L68.1993,71.1565 Z" id="Fill-12" fill="#FFFFFF"></path><path d="M78.1685,63.4998 C78.2185,63.5698 78.3275,63.7268 78.4975,63.9708 C78.6665,64.2158 78.8785,64.5148 79.1325,64.8678 C79.3865,65.2218 79.6705,65.6138 79.9845,66.0418 C80.2975,66.4708 80.6175,66.9068 80.9415,67.3508 C81.2645,67.7948 81.5815,68.2278 81.8905,68.6518 C82.1985,69.0758 82.4785,69.4618 82.7275,69.8108 C82.9765,70.1598 83.1885,70.4508 83.3625,70.6858 C83.5365,70.9198 83.6435,71.0668 83.6845,71.1258 C83.7035,71.0968 83.7935,70.9698 83.9535,70.7448 C84.1125,70.5208 84.3145,70.2398 84.5585,69.8998 C84.8025,69.5618 85.0785,69.1748 85.3875,68.7418 C85.6965,68.3078 86.0155,67.8668 86.3445,67.4178 C86.6735,66.9688 86.9935,66.5258 87.3085,66.0868 C87.6225,65.6478 87.9115,65.2498 88.1755,64.8908 C88.4395,64.5318 88.6605,64.2278 88.8395,63.9788 C89.0195,63.7288 89.1335,63.5698 89.1835,63.4998 L89.1835,74.8798 L87.2265,74.8798 L87.2265,69.3168 C87.2265,69.2378 87.2355,69.1528 87.2555,69.0628 C87.2755,68.9738 87.2855,68.9178 87.2855,68.8978 L83.6845,74.0868 C83.6335,74.0278 83.5115,73.8628 83.3175,73.5948 C83.1235,73.3248 82.8915,73.0058 82.6225,72.6368 C82.3535,72.2688 82.0695,71.8718 81.7705,71.4478 C81.4715,71.0248 81.1895,70.6308 80.9255,70.2668 C80.6615,69.9028 80.4385,69.5938 80.2535,69.3398 C80.0685,69.0858 79.9665,68.9388 79.9475,68.8978 C79.9475,68.9178 79.9565,68.9738 79.9775,69.0628 C79.9975,69.1528 80.0065,69.2378 80.0065,69.3168 L80.0065,74.8798 L78.1685,74.8798 L78.1685,63.4998 Z" id="Fill-14" fill="#FFFFFF"></path><path d="M97.2999,69.4515 C97.2999,69.9795 97.3969,70.4755 97.5919,70.9395 C97.7859,71.4035 98.0549,71.8065 98.3989,72.1505 C98.7419,72.4945 99.1409,72.7665 99.5939,72.9665 C100.0479,73.1655 100.5379,73.2645 101.0669,73.2645 C101.5749,73.2645 102.0549,73.1655 102.5089,72.9665 C102.9619,72.7665 103.3549,72.4945 103.6899,72.1505 C104.0229,71.8065 104.2879,71.4035 104.4819,70.9395 C104.6759,70.4755 104.7729,69.9795 104.7729,69.4515 C104.7729,68.9235 104.6739,68.4275 104.4739,67.9635 C104.2749,67.4995 104.0059,67.0945 103.6669,66.7445 C103.3279,66.3955 102.9319,66.1225 102.4789,65.9225 C102.0259,65.7235 101.5389,65.6235 101.0219,65.6235 C100.5039,65.6235 100.0179,65.7235 99.5639,65.9225 C99.1109,66.1225 98.7169,66.3955 98.3839,66.7445 C98.0499,67.0945 97.7859,67.4995 97.5919,67.9635 C97.3969,68.4275 97.2999,68.9235 97.2999,69.4515 M95.4619,69.4515 C95.4619,68.6945 95.6089,67.9765 95.9029,67.2985 C96.1959,66.6195 96.5949,66.0275 97.0989,65.5185 C97.6009,65.0105 98.1889,64.6065 98.8619,64.3075 C99.5339,64.0085 100.2539,63.8595 101.0219,63.8595 C101.7789,63.8595 102.4959,64.0085 103.1739,64.3075 C103.8519,64.6065 104.4439,65.0105 104.9519,65.5185 C105.4609,66.0275 105.8619,66.6195 106.1549,67.2985 C106.4499,67.9765 106.5969,68.6945 106.5969,69.4515 C106.5969,70.2195 106.4499,70.9395 106.1549,71.6135 C105.8619,72.2855 105.4609,72.8745 104.9519,73.3775 C104.4439,73.8805 103.8519,74.2775 103.1739,74.5665 C102.4959,74.8555 101.7789,74.9995 101.0219,74.9995 C100.2539,74.9995 99.5339,74.8555 98.8619,74.5665 C98.1889,74.2775 97.6009,73.8805 97.0989,73.3775 C96.5949,72.8745 96.1959,72.2855 95.9029,71.6135 C95.6089,70.9395 95.4619,70.2195 95.4619,69.4515" id="Fill-16" fill="#FFFFFF"></path><g id="Group-20" transform="translate(112.000000, 63.000000)"><mask id="mask-4" fill="white"><use xlink:href="#path-3"></use></mask><g id="Clip-19"></g><path d="M9.1095,6.5862 L9.1095,11.2222 C8.6915,11.4712 8.1855,11.6632 7.5925,11.7982 C6.9995,11.9322 6.3945,12.0002 5.7765,12.0002 C4.9195,12.0002 4.1445,11.8652 3.4525,11.5962 C2.7595,11.3272 2.1695,10.9582 1.6815,10.4892 C1.1925,10.0212 0.8185,9.4622 0.5605,8.8152 C0.3005,8.1672 0.1715,7.4582 0.1715,6.6912 C0.1715,5.8232 0.3255,5.0332 0.6345,4.3212 C0.9435,3.6072 1.3595,2.9952 1.8825,2.4812 C2.4055,1.9672 3.0135,1.5692 3.7065,1.2852 C4.3985,1.0012 5.1285,0.8582 5.8965,0.8582 C6.1545,0.8582 6.4265,0.8762 6.7105,0.9112 C6.9945,0.9462 7.2765,0.9982 7.5545,1.0682 C7.8335,1.1382 8.1035,1.2202 8.3615,1.3152 C8.6215,1.4092 8.8555,1.5222 9.0645,1.6512 L8.1685,3.1472 C8.0285,3.0572 7.8605,2.9802 7.6675,2.9152 C7.4725,2.8502 7.2715,2.7932 7.0625,2.7432 C6.8525,2.6932 6.6455,2.6552 6.4415,2.6312 C6.2375,2.6062 6.0455,2.5932 5.8665,2.5932 C5.3585,2.5932 4.8725,2.6952 4.4085,2.9002 C3.9455,3.1042 3.5335,3.3812 3.1755,3.7302 C2.8175,4.0792 2.5305,4.4952 2.3165,4.9782 C2.1025,5.4622 1.9955,5.9792 1.9955,6.5262 C1.9955,7.0252 2.0885,7.4982 2.2785,7.9472 C2.4685,8.3962 2.7325,8.7922 3.0705,9.1362 C3.4095,9.4802 3.8135,9.7542 4.2815,9.9592 C4.7505,10.1622 5.2625,10.2652 5.8215,10.2652 C6.0205,10.2652 6.2695,10.2472 6.5685,10.2122 C6.8675,10.1782 7.1515,10.1152 7.4205,10.0252 L7.4205,8.1712 L5.3875,8.1712 L5.3875,6.5862 L9.1095,6.5862 Z" id="Fill-18" fill="#FFFFFF" mask="url(#mask-4)"></path></g><path d="M131.7505,74.9998 C131.1625,74.9998 130.6125,74.9028 130.0995,74.7078 C129.5855,74.5138 129.1405,74.2428 128.7615,73.8938 C128.3835,73.5438 128.0835,73.1228 127.8645,72.6298 C127.6455,72.1358 127.5365,71.5898 127.5365,70.9918 L127.5365,63.9788 L129.3595,63.9788 L129.3595,70.9468 C129.3595,71.2668 129.4215,71.5648 129.5465,71.8448 C129.6705,72.1238 129.8395,72.3678 130.0545,72.5768 C130.2685,72.7868 130.5205,72.9538 130.8095,73.0778 C131.0985,73.2028 131.4125,73.2648 131.7505,73.2648 C132.0895,73.2648 132.4055,73.2028 132.6995,73.0778 C132.9945,72.9538 133.2505,72.7868 133.4695,72.5768 C133.6885,72.3678 133.8605,72.1238 133.9855,71.8448 C134.1105,71.5648 134.1725,71.2668 134.1725,70.9468 L134.1725,63.9788 L135.9955,63.9788 L135.9955,70.9918 C135.9955,71.5898 135.8855,72.1358 135.6675,72.6298 C135.4475,73.1228 135.1465,73.5438 134.7635,73.8938 C134.3785,74.2428 133.9275,74.5138 133.4105,74.7078 C132.8925,74.9028 132.3385,74.9998 131.7505,74.9998" id="Fill-21" fill="#FFFFFF"></path><polygon id="Fill-23" fill="#FFFFFF" points="142.8858 74.8802 142.8858 63.9782 144.7098 63.9782 144.7098 73.1462 149.9998 73.1462 149.9998 74.8802"></polygon><mask id="mask-6" fill="white"><use xlink:href="#path-5"></use></mask><g id="Clip-26"></g><polygon id="Fill-25" fill="#FFFFFF" mask="url(#mask-6)" points="66.25 55.5 67.25 55.5 67.25 49.5 66.25 49.5"></polygon><polygon id="Fill-27" fill="#FFFFFF" mask="url(#mask-6)" points="69.25 55.5 70.25 55.5 70.25 15.019 69.25 15.019"></polygon><polygon id="Fill-28" fill="#FFFFFF" mask="url(#mask-6)" points="72.25 55.5 73.25 55.5 73.25 7.5 72.25 7.5"></polygon><polygon id="Fill-29" fill="#FFFFFF" mask="url(#mask-6)" points="75.25 50.25 76.25 50.25 76.25 0 75.25 0"></polygon><polygon id="Fill-30" fill="#FFFFFF" mask="url(#mask-6)" points="78.25 55.5 79.25 55.5 79.25 7.5 78.25 7.5"></polygon><polygon id="Fill-31" fill="#FFFFFF" mask="url(#mask-6)" points="81.25 55.5 82.25 55.5 82.25 15.019 81.25 15.019"></polygon><polygon id="Fill-32" fill="#FFFFFF" mask="url(#mask-6)" points="84.25 55.5 85.25 55.5 85.25 49.5 84.25 49.5"></polygon></g></g></g></svg>