<?xml version="1.0" encoding="UTF-8"?>
<svg width="24px" height="23px" viewBox="0 0 24 23" version="1.1" xmlns="http://www.w3.org/2000/svg" xmlns:xlink="http://www.w3.org/1999/xlink">
    <!-- Generator: Sketch 49.3 (51167) - http://www.bohemiancoding.com/sketch -->
    <title>linkedin</title>
    <desc>Created with Sketch.</desc>
    <defs></defs>
    <g id="Symbols" stroke="none" stroke-width="1" fill="none" fill-rule="evenodd">
        <g id="desktop/navigation/social/video_blu" transform="translate(-90.000000, 0.000000)" fill="#176DB6">
            <g id="Social">
                <path d="M113.827713,23 L108.647775,23 L108.647775,14.8844653 C108.647775,14.8844653 108.647775,11.8106167 106.058704,11.8106167 C103.467838,11.8106167 103.467838,14.9491023 103.467838,14.9491023 L103.467838,23 L98.2879001,23 C98.2879001,23 98.3525371,9.42982045 98.2879001,8.08142077 L103.467838,8.08142077 L103.467838,10.1516003 C104.128571,9.13177205 104.972443,7.68103044 107.611788,7.68103044 C110.881343,7.68103044 113.827713,9.81943794 113.827713,14.4140515 L113.827713,23 Z M92.7973458,5.59469165 C91.2532397,5.59469165 90,4.34145199 90,2.7991413 C90,1.25323966 91.2532397,-1.77635684e-15 92.7973458,-1.77635684e-15 C94.3432475,-1.77635684e-15 95.5946916,1.25323966 95.5946916,2.7991413 C95.5946916,4.34145199 94.3432475,5.59469165 92.7973458,5.59469165 L92.7973458,5.59469165 Z M90,23 L95.1799375,23 L95.1799375,8.08142077 L90,8.08142077 L90,23 Z" id="linkedin"></path>
            </g>
        </g>
    </g>
</svg>