<?xml version="1.0" encoding="UTF-8"?><svg width="27px" height="22px" viewBox="0 0 27 22" version="1.1" xmlns="http://www.w3.org/2000/svg" xmlns:xlink="http://www.w3.org/1999/xlink"><title>Twitter</title><desc>Created with Sketch.</desc><defs></defs><g id="Symbols" stroke="none" stroke-width="1" fill="none" fill-rule="evenodd"><g id="desktop/global/footer/signedout" transform="translate(-1545.000000, -233.000000)" fill="#9B9B9B"><g id="Social" transform="translate(1545.000000, 232.000000)"><path d="M8.51336186,23 C18.8239658,23 24.6487874,14.2899667 24.2972896,6.47960057 C25.3831669,5.69709938 26.324679,4.71792677 27.0695197,3.60485021 C26.0715169,4.04631479 25.0023776,4.34550642 23.880932,4.47731812 C25.0253923,3.79315264 25.9062292,2.70309082 26.3204945,1.40589634 C25.2471707,2.04194009 24.0587732,2.50432715 22.7950547,2.7533048 C21.7824061,1.67370423 20.3387542,1 18.7402758,1 C15.156253,1 12.5221113,4.34550642 13.3318117,7.82073229 C8.71631003,7.58849263 4.62387066,5.37698526 1.8851165,2.0168331 C0.431003329,4.51288635 1.12981455,7.7788873 3.60285307,9.43176415 C2.69272468,9.40456491 1.83699477,9.15349501 1.08796957,8.73713742 C1.02729434,11.3106039 2.87056586,13.7166904 5.54236805,14.2523062 C4.75986686,14.4657156 3.90413695,14.5138374 3.03376129,14.3464574 C3.74094151,16.5558726 5.7913457,18.1585354 8.22044698,18.2045649 C5.88758916,20.0352829 2.94588683,20.8512601 0,20.5039467 C2.45839277,22.0794104 5.37708036,23 8.51336186,23 Z" id="Fill-3"></path></g></g></g></svg>