<?xml version="1.0" encoding="UTF-8"?><svg width="24px" height="23px" viewBox="0 0 24 23" version="1.1" xmlns="http://www.w3.org/2000/svg" xmlns:xlink="http://www.w3.org/1999/xlink"><title>LinkedIn</title><desc>Created with Sketch.</desc><defs></defs><g id="Symbols" stroke="none" stroke-width="1" fill="none" fill-rule="evenodd"><g id="desktop/global/footer/signedout" transform="translate(-1687.000000, -232.000000)" fill="#9B9B9B"><g id="Social" transform="translate(1545.000000, 232.000000)"><path d="M165.827713,23 L160.647775,23 L160.647775,14.8844653 C160.647775,14.8844653 160.647775,11.8106167 158.058704,11.8106167 C155.467838,11.8106167 155.467838,14.9491023 155.467838,14.9491023 L155.467838,23 L150.2879,23 C150.2879,23 150.352537,9.42982045 150.2879,8.08142077 L155.467838,8.08142077 L155.467838,10.1516003 C156.128571,9.13177205 156.972443,7.68103044 159.611788,7.68103044 C162.881343,7.68103044 165.827713,9.81943794 165.827713,14.4140515 L165.827713,23 Z M144.797346,5.59469165 C143.25324,5.59469165 142,4.34145199 142,2.7991413 C142,1.25323966 143.25324,-1.77635684e-15 144.797346,-1.77635684e-15 C146.343247,-1.77635684e-15 147.594692,1.25323966 147.594692,2.7991413 C147.594692,4.34145199 146.343247,5.59469165 144.797346,5.59469165 L144.797346,5.59469165 Z M142,23 L147.179938,23 L147.179938,8.08142077 L142,8.08142077 L142,23 Z" id="Fill-3"></path></g></g></g></svg>