<?xml version="1.0" encoding="UTF-8"?>
<svg width="32px" height="23px" viewBox="0 0 32 23" version="1.1" xmlns="http://www.w3.org/2000/svg" xmlns:xlink="http://www.w3.org/1999/xlink">
    <!-- Generator: Sketch 49.3 (51167) - http://www.bohemiancoding.com/sketch -->
    <title>youtube</title>
    <desc>Created with Sketch.</desc>
    <defs>
        <polygon id="path-1" points="0 0 31.6499277 0 31.6499277 22.2988454 0 22.2988454"></polygon>
    </defs>
    <g id="Symbols" stroke="none" stroke-width="1" fill="none" fill-rule="evenodd">
        <g id="desktop/navigation/social/video_blu" transform="translate(-138.000000, 0.000000)">
            <g id="Social">
                <g id="youtube" transform="translate(138.000000, 0.000000)">
                    <mask id="mask-2" fill="white">
                        <use xlink:href="#path-1"></use>
                    </mask>
                    <g id="Clip-2"></g>
                    <path d="M16.7042943,13.5625463 L12.5879961,15.9389938 L12.5879961,11.1860989 L12.5879961,6.43302427 L16.7042943,8.80947168 L20.8204128,11.1860989 L16.7042943,13.5625463 Z M30.9886945,3.48202146 C30.6245396,2.11136068 29.5520362,1.03202377 28.1903669,0.665710986 C25.7222065,-1.79829543e-05 15.8249279,-1.79829543e-05 15.8249279,-1.79829543e-05 C15.8249279,-1.79829543e-05 5.92782913,-1.79829543e-05 3.45948882,0.665710986 C2.09781952,1.03202377 1.02531612,2.11136068 0.661341128,3.48202146 C-7.19318173e-05,5.96618677 -7.19318173e-05,11.1494137 -7.19318173e-05,11.1494137 C-7.19318173e-05,11.1494137 -7.19318173e-05,16.3324608 0.661341128,18.8168059 C1.02531612,20.1874667 2.09781952,21.2668036 3.45948882,21.6332962 C5.92782913,22.2988454 15.8249279,22.2988454 15.8249279,22.2988454 C15.8249279,22.2988454 25.7222065,22.2988454 28.1903669,21.6332962 C29.5520362,21.2668036 30.6245396,20.1874667 30.9886945,18.8168059 C31.6499277,16.3324608 31.6499277,11.1494137 31.6499277,11.1494137 C31.6499277,11.1494137 31.6499277,5.96618677 30.9886945,3.48202146 Z" id="Fill-1" fill="#176DB6" mask="url(#mask-2)"></path>
                </g>
            </g>
        </g>
    </g>
</svg>