<?xml version="1.0" encoding="UTF-8"?><svg width="23px" height="23px" viewBox="0 0 23 23" version="1.1" xmlns="http://www.w3.org/2000/svg" xmlns:xlink="http://www.w3.org/1999/xlink"><title>Instagram</title><desc>Created with Sketch.</desc><defs></defs><g id="Symbols" stroke="none" stroke-width="1" fill="none" fill-rule="evenodd"><g id="desktop/global/footer/signedout" transform="translate(-1737.000000, -232.000000)" fill="#9B9B9B"><g id="Social" transform="translate(1545.000000, 232.000000)"><path d="M199,0 L208,0 C211.865993,-7.10171439e-16 215,3.13400675 215,7 L215,16 C215,19.8659932 211.865993,23 208,23 L199,23 C195.134007,23 192,19.8659932 192,16 L192,7 C192,3.13400675 195.134007,7.10171439e-16 199,0 Z M203.5,17 C206.537566,17 209,14.5375661 209,11.5 C209,8.46243388 206.537566,6 203.5,6 C200.462434,6 198,8.46243388 198,11.5 C198,14.5375661 200.462434,17 203.5,17 Z M203.5,15 C201.567003,15 200,13.4329966 200,11.5 C200,9.56700338 201.567003,8 203.5,8 C205.432997,8 207,9.56700338 207,11.5 C207,13.4329966 205.432997,15 203.5,15 Z M210.5,6 C211.328427,6 212,5.32842712 212,4.5 C212,3.67157288 211.328427,3 210.5,3 C209.671573,3 209,3.67157288 209,4.5 C209,5.32842712 209.671573,6 210.5,6 Z" id="Combined-Shape"></path></g></g></g></svg>