<?xml version="1.0" encoding="UTF-8"?>
<svg width="19px" height="19px" viewBox="0 0 19 19" version="1.1" xmlns="http://www.w3.org/2000/svg" xmlns:xlink="http://www.w3.org/1999/xlink">
    <!-- Generator: Sketch 49.1 (51147) - http://www.bohemiancoding.com/sketch -->
    <title>desktop/icon/question/blu</title>
    <desc>Created with Sketch.</desc>
    <defs></defs>
    <g id="desktop/icon/question/blu" stroke="none" stroke-width="1" fill="none" fill-rule="evenodd">
        <g id="question" transform="translate(2.000000, 2.000000)" fill="#176DB6" fill-rule="nonzero">
            <path d="M7.5,1.33333333 C10.905756,1.33333333 13.6666667,4.09424404 13.6666667,7.5 C13.6666667,10.905756 10.905756,13.6666667 7.5,13.6666667 C4.09424404,13.6666667 1.33333333,10.905756 1.33333333,7.5 C1.33333333,4.09424404 4.09424404,1.33333333 7.5,1.33333333 Z M7.5,0 C3.35786438,1.33226763e-15 5.92118946e-16,3.35786438 0,7.5 C-4.4408921e-16,11.6421356 3.35786438,15 7.5,15 C11.6421356,15 15,11.6421356 15,7.5 C15,5.51087633 14.2098237,3.60322198 12.8033009,2.19669914 C11.396778,0.790176303 9.48912367,7.40148683e-16 7.5,0 Z" id="Shape"></path>
            <path d="M8.15,9.06333333 L6.85,9.06333333 L6.85,8.36 C6.83550421,8.12377204 6.87246656,7.88721298 6.95833333,7.66666667 C7.08690305,7.44587033 7.24817689,7.24582333 7.43666667,7.07333333 L8.27,6.24 C8.44749702,6.04558506 8.54251523,5.78981279 8.535,5.52666667 C8.54283704,5.26277425 8.4429555,5.00705344 8.25833333,4.81833333 C8.07024124,4.62907283 7.8116535,4.52696693 7.545,4.53666667 C7.2752927,4.52817523 7.01287333,4.62501336 6.81333333,4.80666667 C6.61585261,4.99636588 6.49687646,5.25335437 6.48,5.52666667 L5.08666667,5.52666667 C5.13132943,4.90665199 5.41880978,4.32929562 5.88666667,3.92 C6.36640387,3.52192467 6.97526998,3.31323833 7.59833333,3.33333333 C8.20368998,3.30784552 8.79715971,3.50665788 9.265,3.89166667 C9.695,4.26388889 9.91,4.78388889 9.91,5.45166667 C9.92465028,5.86857725 9.78988593,6.27700778 9.53,6.60333333 C9.42573462,6.73956367 9.31447408,6.8702948 9.19666667,6.995 C9.12,7.07166667 9.01833333,7.16944444 8.89166667,7.28833333 C8.765,7.40722222 8.65722222,7.51111111 8.56833333,7.6 C8.47944444,7.68888889 8.40833333,7.76388889 8.355,7.825 C8.20512535,8.03208011 8.13205117,8.28489321 8.14833333,8.54 L8.15,9.06333333 Z M8.405,10.7666667 C8.40567438,11.1328559 8.1856063,11.4633629 7.84748491,11.603965 C7.50936353,11.7445671 7.11983385,11.6675511 6.86065997,11.4088545 C6.60148609,11.1501579 6.52375217,10.7607709 6.66373075,10.4223909 C6.80370934,10.0840109 7.13381013,9.86333395 7.5,9.86333333 C7.99916755,9.86333249 8.40408072,10.2675 8.405,10.7666667 Z" id="Shape"></path>
        </g>
    </g>
</svg>